<svg width="19" height="19" viewBox="0 0 19 19" fill="none" xmlns="http://www.w3.org/2000/svg">
  <g clip-path="url(#clip0_409_8500)">
    <path d="M18.6029 17.0223H11.0809V18.2061C11.0846 18.3285 11.0289 18.4436 10.9361 18.5178C10.8434 18.5957 10.7172 18.6217 10.6021 18.5957L0.308008 16.2207C0.126172 16.1799 0 16.0166 0 15.8311V2.37522C0 2.17854 0.141016 2.01526 0.333984 1.98557L10.6244 0.401001C10.8396 0.367603 11.0437 0.516041 11.0771 0.731276C11.0809 0.74983 11.0809 0.772095 11.0809 0.790649V1.97815H18.6029C18.8219 1.97815 19 2.15627 19 2.37522V16.6252C19 16.8442 18.8219 17.0223 18.6029 17.0223ZM11.0809 11.4781H13.4559V9.89729H11.0809V11.4781ZM11.0809 9.10315H13.4559V7.52229H11.0809V9.10315ZM14.25 9.10315H18.2096V7.52229H14.25V9.10315ZM14.25 9.89729V11.4781H18.2096V9.89729H14.25ZM14.25 12.2723V13.8531H18.2096V12.2723H14.25ZM13.4559 12.2723H11.0809V13.8531H13.4559V12.2723ZM11.0809 6.72815H13.4559V5.14729H11.0809V6.72815ZM14.25 6.72815H18.2096V5.14729H14.25V6.72815ZM18.2096 14.6473H14.25V16.2281H18.2096V14.6473ZM13.4559 16.2281V14.6473H11.0809V16.2281H13.4559ZM7.85977 6.53889C7.9748 6.35335 7.91914 6.10842 7.73359 5.99338C7.6668 5.95627 7.59629 5.93772 7.52207 5.93772C7.38477 5.93772 7.25859 6.00823 7.18809 6.12327L5.54414 8.75432L3.9002 6.12327C3.82598 6.00823 3.6998 5.93772 3.5625 5.93772C3.34355 5.93772 3.16543 6.11585 3.16914 6.33479C3.16914 6.40901 3.19141 6.47952 3.22852 6.5426L5.07656 9.50022L3.22852 12.4541C3.10605 12.636 3.1543 12.8809 3.33613 13.0033C3.51797 13.1258 3.76289 13.0776 3.88535 12.8957C3.88906 12.8883 3.89648 12.8809 3.9002 12.8735L5.54414 10.2461L7.18809 12.8772C7.29941 13.0664 7.54063 13.1295 7.72988 13.0219C7.91914 12.9106 7.98223 12.6694 7.87461 12.4801C7.8709 12.4727 7.86719 12.4653 7.85977 12.4578L6.01172 9.50022L7.85977 6.53889ZM11.0809 4.35315H13.4559V2.77229H11.0809V4.35315ZM14.25 2.77229V4.35315H18.2096V2.77229H14.25Z" fill="#0E9B65"/>
  </g>
  <defs>
    <clipPath id="clip0_409_8500">
      <rect width="19" height="19" fill="white" transform="matrix(1 0 0 -1 0 19)"/>
    </clipPath>
  </defs>
</svg>
